<svg xmlns="http://www.w3.org/2000/svg" viewBox="0 0 504.58 44.4"><defs><style>.cls-1{fill:#1a1a1a;}</style></defs><g id="Calque_2" data-name="Calque 2"><g id="object"><path class="cls-1" d="M9.16,41.68c-2.93,1.92-7,.55-7.3-3.17a4.53,4.53,0,0,1,4.48-4.87h.55c1.2,0,2.42,0,3.62,0H225.76c5.64,0,11.11-.22,16.49-2.35a35.25,35.25,0,0,0,10.69-6.68c.86-.78-.41-2.05-1.27-1.27a32.93,32.93,0,0,1-21.91,8.5c-.93,0-1.85,0-2.78,0H9.4c-1,0-1.95,0-2.92,0-4.91.17-8.31,5.45-5.42,9.81a6.44,6.44,0,0,0,9,1.59c1-.63.07-2.19-.9-1.56Z"/><path class="cls-1" d="M260.3,12.68h0a32.92,32.92,0,0,1-8,11.28,33.07,33.07,0,0,1-8-11.29L252.3,0Z"/><path class="cls-1" d="M251.67,24.61c7,6.34,15.65,9,25,9H472.48c8.55,0,17.26-.5,25.8,0a4.6,4.6,0,0,1,4.52,4.3c.19,4-4.27,5.75-7.35,3.74-1-.63-1.87.93-.91,1.56a6.46,6.46,0,0,0,9-1.59A6.37,6.37,0,0,0,502,33.08a7.81,7.81,0,0,0-5-1.24H280.2c-4.73,0-9.35.13-14-1.15a33,33,0,0,1-13.28-7.35c-.86-.78-2.14.49-1.27,1.27Z"/></g></g></svg>